name Walk5.mot
datacolumns 19
datarows 15
range 2.01500000 2.08500000
endheader

                time	   L_ground_force_vx	   L_ground_force_vy	   L_ground_force_vz	   L_ground_force_px	   L_ground_force_py	   L_ground_force_pz	   R_ground_force_vx	   R_ground_force_vy	   R_ground_force_vz	   R_ground_force_px	   R_ground_force_py	   R_ground_force_pz	   L_ground_torque_x	   L_ground_torque_y	   L_ground_torque_z	   R_ground_torque_x	   R_ground_torque_y	   R_ground_torque_z	
          2.01500000	          0.00000000	          0.00000000	         -0.00000000	         -0.00000000	          0.00000000	         -0.00000000	        -25.16152233	        518.13620296	        -45.03721964	          0.26253136	          0.00000000	          0.08826926	          0.00000000	          0.00000000	          0.00000000	          0.00000000	          0.86597565	          0.00000000	
          2.02000000	         -0.00000000	         -0.00000000	          0.00000000	          0.00000000	          0.00000000	          0.00000000	        -23.56209867	        512.10462167	        -44.54582767	          0.26491160	          0.00000000	          0.08873226	          0.00000000	         -0.00000000	          0.00000000	          0.00000000	          0.84664954	          0.00000000	
          2.02500000	         -0.00000000	         -0.00000000	          0.00000000	          0.00000000	          0.00000000	          0.00000000	        -22.07370152	        506.96836005	        -43.91863059	          0.26743283	          0.00000000	          0.08924347	          0.00000000	         -0.00000000	          0.00000000	          0.00000000	          0.82319874	          0.00000000	
          2.03000000	         -0.00000000	         -0.00000000	          0.00000000	          0.00000000	          0.00000000	          0.00000000	        -20.54106857	        502.44116783	        -43.21850836	          0.26997090	          0.00000000	          0.08960422	          0.00000000	         -0.00000000	          0.00000000	          0.00000000	          0.82682449	          0.00000000	
          2.03500000	          0.00000000	          0.00000000	         -0.00000000	         -0.00000000	          0.00000000	         -0.00000000	        -19.11498961	        498.39009686	        -42.54804396	          0.27217610	          0.00000000	          0.08989914	          0.00000000	          0.00000000	          0.00000000	          0.00000000	          0.85133288	          0.00000000	
          2.04000000	          0.00000000	          0.00000000	         -0.00000000	         -0.00000000	          0.00000000	         -0.00000000	        -17.85302792	        494.70317592	        -41.97946917	          0.27426879	          0.00000000	          0.09006521	          0.00000000	          0.00000000	          0.00000000	          0.00000000	          0.89928058	          0.00000000	
          2.04500000	         -0.00000000	         -0.00000000	         -0.00000000	         -0.00000000	          0.00000000	         -0.00000000	        -16.62793139	        491.85486520	        -41.52921919	          0.27661506	          0.00000000	          0.09023873	          0.00000000	         -0.00000000	          0.00000000	          0.00000000	          0.92010741	          0.00000000	
          2.05000000	         -0.00000000	         -0.00000000	          0.00000000	          0.00000000	          0.00000000	          0.00000000	        -15.49219431	        489.86970141	        -41.20895288	          0.27894189	          0.00000000	          0.09044612	          0.00000000	         -0.00000000	          0.00000000	          0.00000000	          0.91859429	          0.00000000	
          2.05500000	         -0.00000000	         -0.00000000	          0.00000000	          0.00000000	          0.00000000	          0.00000000	        -14.38865751	        488.28421624	        -40.98406826	          0.28090594	          0.00000000	          0.09052589	          0.00000000	         -0.00000000	          0.00000000	          0.00000000	          0.93629877	          0.00000000	
          2.06000000	          0.00000000	          0.00000000	         -0.00000000	          0.00000000	          0.00000000	          0.00000000	        -13.21042610	        486.90030604	        -40.76456144	          0.28251084	          0.00000000	          0.09045994	          0.00000000	          0.00000000	          0.00000000	          0.00000000	          0.94324425	          0.00000000	
          2.06500000	          0.00000000	          0.00000000	         -0.00000000	         -0.00000000	          0.00000000	         -0.00000000	        -11.98094766	        485.95143205	        -40.59104899	          0.28418934	          0.00000000	          0.09042938	          0.00000000	          0.00000000	          0.00000000	          0.00000000	          0.90159534	          0.00000000	
          2.07000000	          0.00000000	          0.00000000	         -0.00000000	         -0.00000000	          0.00000000	         -0.00000000	        -10.64024200	        485.67956196	        -40.54980613	          0.28601090	          0.00000000	          0.09041846	          0.00000000	          0.00000000	          0.00000000	          0.00000000	          0.89299595	          0.00000000	
          2.07500000	         -0.00000000	         -0.00000000	          0.00000000	          0.00000000	          0.00000000	          0.00000000	         -9.09397846	        486.23834191	        -40.65813259	          0.28753461	          0.00000000	          0.09039821	          0.00000000	         -0.00000000	          0.00000000	          0.00000000	          0.94936404	          0.00000000	
          2.08000000	         -0.00000000	         -0.00000000	          0.00000000	          0.00000000	          0.00000000	          0.00000000	         -7.46286587	        487.64442920	        -40.90536249	          0.28886042	          0.00000000	          0.09038052	          0.00000000	         -0.00000000	          0.00000000	          0.00000000	          0.95688680	          0.00000000	
          2.08500000	         -0.00000000	         -0.00000000	          0.00000000	          0.00000000	          0.00000000	          0.00000000	         -5.92335680	        489.99113026	        -41.23775473	          0.29035218	          0.00000000	          0.09035853	          0.00000000	         -0.00000000	          0.00000000	          0.00000000	          0.88890385	          0.00000000	
